<svg width="72" height="72" viewBox="0 0 72 72" fill="none" xmlns="http://www.w3.org/2000/svg">
<g clip-path="url(#clip0_2_26)">
<rect width="72" height="72" rx="16" fill="#FF2424"/>
<path d="M20.7521 47V10.6364H45.5746V17.7741H29.5412V25.2315H43.9943V32.3871H29.5412V47H20.7521Z" fill="white"/>
<path d="M24.7521 56V19.6364H39.7734C42.496 19.6364 44.8456 20.169 46.8224 21.2344C48.8111 22.2879 50.344 23.7616 51.4212 25.6555C52.4983 27.5376 53.0369 29.7275 53.0369 32.2251C53.0369 34.7346 52.4865 36.9304 51.3857 38.8125C50.2966 40.6828 48.7401 42.1328 46.7159 43.1626C44.6918 44.1925 42.2888 44.7074 39.5071 44.7074H30.2386V37.7827H37.8736C39.1993 37.7827 40.3061 37.5518 41.1939 37.0902C42.0935 36.6286 42.7741 35.9834 43.2358 35.1548C43.6974 34.3144 43.9283 33.3378 43.9283 32.2251C43.9283 31.1006 43.6974 30.13 43.2358 29.3132C42.7741 28.4846 42.0935 27.8454 41.1939 27.3956C40.2943 26.9458 39.1875 26.7209 37.8736 26.7209H33.5412V56H24.7521Z" fill="white"/>
<rect x="28" y="24" width="19" height="16" rx="8" fill="#FF2424"/>
</g>
<defs>
<clipPath id="clip0_2_26">
<rect width="72" height="72" rx="16" fill="white"/>
</clipPath>
</defs>
</svg>
